name analog
datacolumns 19
datarows 23
range 0.17250000000000001 0.1835
endheader
time	ground_force_vx	ground_force_vy	ground_force_vz	ground_force_px	ground_force_py	ground_force_pz	l_ground_force_vx	l_ground_force_vy	l_ground_force_vz	l_ground_force_px	l_ground_force_py	l_ground_force_pz	ground_torque_x	ground_torque_y	ground_torque_z	l_ground_torque_x	l_ground_torque_y	l_ground_torque_z
0.17250000000000001	-0.0	-0.0	-0.0	-5.667684078216553	2.694493293762207	-81.03132629394531	5.3226470947265625	-3.6833784580230713	-424.9650268554688	-0.0	-0.0	-0.0	-0.0	-0.0	-0.0	144130.703125	-39222.3203125	1214.33544921875
0.17300000000000001	-0.0	-0.0	-0.0	-5.70947265625	2.9798686504364014	-79.57074737548828	5.042725086212158	-3.634918451309204	-425.0680541992188	-0.0	-0.0	-0.0	-0.0	-0.0	-0.0	143911.921875	-39111.109375	1303.79248046875
0.17350000000000002	-0.0	-0.0	-0.0	-6.003499031066895	2.7651546001434326	-78.66300201416016	5.5382466316223145	-3.683801651000977	-425.0148010253906	-0.0	-0.0	-0.0	-0.0	-0.0	-0.0	143555.9375	-39225.3984375	1367.5489501953125
0.17400000000000002	-0.0	-0.0	-0.0	-5.417250156402588	3.4253783226013184	-79.41059112548828	5.728100299835205	-3.6840319633483887	-424.5168762207031	-0.0	-0.0	-0.0	-0.0	-0.0	-0.0	143630.8125	-39074.37109375	1380.4244384765625
0.17450000000000002	-0.0	-0.0	-0.0	-5.300637722015381	3.169142723083496	-78.7638168334961	5.715536117553711	-3.9240331649780273	-423.8204040527344	-0.0	-0.0	-0.0	-0.0	-0.0	-0.0	143577.578125	-39274.7109375	1320.9453125
0.17500000000000002	-0.0	-0.0	-0.0	-5.581914901733398	2.967111349105835	-78.00321197509766	5.829453945159912	-3.747335195541382	-424.5182800292969	-0.0	-0.0	-0.0	-0.0	-0.0	-0.0	143681.390625	-39185.1171875	1422.8116455078125
0.17550000000000002	-0.0	-0.0	-0.0	-5.148867130279541	3.145139455795288	-77.04338836669922	5.867794990539551	-3.344129800796509	-424.568359375	-0.0	-0.0	-0.0	-0.0	-0.0	-0.0	143310.1875	-39182.50390625	1452.5535888671875
0.176	-0.0	-0.0	-0.0	-5.1104021072387695	3.272643804550171	-79.1123046875	6.082006454467773	-3.658872127532959	-423.0740051269531	-0.0	-0.0	-0.0	-0.0	-0.0	-0.0	143440.03125	-39462.37890625	1495.30078125
0.1765	-0.0	-0.0	-0.0	-5.224684238433838	3.209280490875244	-76.94210815429688	6.157264709472656	-3.419982433319092	-422.72552490234375	-0.0	-0.0	-0.0	-0.0	-0.0	-0.0	143256.734375	-39308.5703125	1686.1107177734375
0.177	-0.0	-0.0	-0.0	-5.212281227111816	3.2086944580078125	-78.00550842285156	6.526881217956543	-3.1399247646331787	-423.7738952636719	-0.0	-0.0	-0.0	-0.0	-0.0	-0.0	143431.796875	-39388.1328125	1792.5660400390625
0.1775	-0.0	-0.0	-0.0	-4.868561744689941	3.235025644302368	-77.44474029541016	7.403154850006103	-2.9254567623138428	-423.2771301269531	-0.0	-0.0	-0.0	-0.0	-0.0	-0.0	143351.9375	-39555.01171875	1656.755615234375
0.178	-0.0	-0.0	-0.0	-4.701491832733154	3.692251443862915	-78.65355682373047	7.486253261566162	-3.3666813373565674	-422.9705505371094	-0.0	-0.0	-0.0	-0.0	-0.0	-0.0	143335.75	-39698.26953125	1920.0635986328125
0.1785	-0.0	-0.0	-0.0	-4.522810459136963	3.5921177864074707	-79.1755599975586	7.577937126159668	-3.1931910514831543	-423.6823120117188	-0.0	-0.0	-0.0	-0.0	-0.0	-0.0	143158.703125	-39885.125	1970.380126953125
0.179	-0.0	-0.0	-0.0	-4.4605255126953125	3.8083841800689697	-79.1660385131836	8.110146522521973	-3.193300724029541	-423.3192138671875	-0.0	-0.0	-0.0	-0.0	-0.0	-0.0	143422.390625	-40039.1953125	2081.439453125
0.1795	-0.0	-0.0	-0.0	-3.973286628723145	3.9697186946868896	-80.11749267578125	8.47884750366211	-3.240154981613159	-423.22662353515625	-0.0	-0.0	-0.0	-0.0	-0.0	-0.0	143382.75	-40043.25	2044.1834716796875
0.18	-0.0	-0.0	-0.0	-4.038290023803711	4.27825927734375	-80.07755279541016	8.590882301330566	-3.133265733718872	-423.0248718261719	-0.0	-0.0	-0.0	-0.0	-0.0	-0.0	143171.796875	-39988.03515625	2114.53564453125
0.1805	-0.0	-0.0	-0.0	-4.080031871795654	4.662693977355957	-82.29092407226562	8.39025592803955	-3.165469169616699	-422.382568359375	-0.0	-0.0	-0.0	-0.0	-0.0	-0.0	142947.078125	-40391.3125	2259.630126953125
0.181	-0.0	-0.0	-0.0	-3.7936794757843018	4.982016086578369	-84.00090789794922	8.865285873413086	-3.310697555541992	-421.887939453125	-0.0	-0.0	-0.0	-0.0	-0.0	-0.0	143069.5	-40263.91796875	2324.050537109375
0.1815	-0.0	-0.0	-0.0	-3.145591974258423	4.878968715667725	-84.65032196044922	8.553361892700195	-3.304866313934326	-420.2570190429688	-0.0	-0.0	-0.0	-0.0	-0.0	-0.0	142814.625	-40300.5	2272.12548828125
0.182	-0.0	-0.0	-0.0	-3.493618965148926	5.186712741851807	-83.05432891845703	9.151822090148926	-3.341676712036133	-420.5818786621094	-0.0	-0.0	-0.0	-0.0	-0.0	-0.0	142904.640625	-40243.1796875	2267.630126953125
0.1825	-0.0	-0.0	-0.0	-3.441864490509033	5.934424877166748	-85.00139617919922	9.299911499023438	-3.194236993789673	-420.6118469238281	-0.0	-0.0	-0.0	-0.0	-0.0	-0.0	142357.59375	-40317.5625	2438.25390625
0.183	-0.0	-0.0	-0.0	-3.174288034439087	6.394749164581299	-86.85613250732422	9.403343200683594	-3.13555645942688	-420.0007629394531	-0.0	-0.0	-0.0	-0.0	-0.0	-0.0	142458.53125	-40394.5	2356.74365234375
0.1835	-0.0	-0.0	-0.0	-2.839951276779175	6.335894107818604	-88.85401916503906	9.55079460144043	-3.0396385192871094	-419.04095458984375	-0.0	-0.0	-0.0	-0.0	-0.0	-0.0	142116.609375	-40144.17578125	2468.1357421875
